<svg width="220" height="220" viewBox="0 0 220 220" fill="none" xmlns="http://www.w3.org/2000/svg">
  <defs>
    <linearGradient id="g1" x1="31" y1="26" x2="179" y2="188" gradientUnits="userSpaceOnUse">
      <stop stop-color="#64D8C7"/>
      <stop offset="1" stop-color="#5EC1E8"/>
    </linearGradient>
    <linearGradient id="g2" x1="57" y1="48" x2="159" y2="161" gradientUnits="userSpaceOnUse">
      <stop stop-color="#F8FCFF"/>
      <stop offset="1" stop-color="#D8EDF7"/>
    </linearGradient>
  </defs>
  <rect x="18" y="18" width="184" height="184" rx="42" fill="#0D2335"/>
  <rect x="18.75" y="18.75" width="182.5" height="182.5" rx="41.25" stroke="url(#g1)" stroke-opacity="0.55" stroke-width="1.5"/>
  <path d="M60 65C60 57.268 66.268 51 74 51H97.091C110.626 51 121.6 61.974 121.6 75.509C121.6 89.044 110.626 100.018 97.091 100.018H88.364V149H60V65Z" fill="url(#g2)"/>
  <path d="M112 51H138.818C152.353 51 163.327 61.974 163.327 75.509C163.327 86.722 155.787 96.173 145.507 99.086L166 149H135.927L119.564 102.564H112V51Z" fill="url(#g1)"/>
  <path d="M54 173.5H166" stroke="#5EC1E8" stroke-opacity="0.65" stroke-width="7" stroke-linecap="round"/>
  <text x="110" y="194" text-anchor="middle" fill="#EAF5FB" font-family="Arial, Helvetica, sans-serif" font-size="21" font-weight="700" letter-spacing="2">UNITY MSK</text>
</svg>
